HIERARCHY
ROOT Hips
{
	OFFSET 0.00000 0.00000 0.00000
	CHANNELS 6 Xposition Yposition Zposition Zrotation Yrotation Xrotation 
	JOINT LHipJoint
	{
		OFFSET 0 0 0
		CHANNELS 3 Zrotation Yrotation Xrotation
		JOINT LeftUpLeg
		{
			OFFSET 1.46561 -1.72757 0.83774
			CHANNELS 3 Zrotation Yrotation Xrotation
			JOINT LeftLeg
			{
				OFFSET 2.48915 -6.83890 0.00000
				CHANNELS 3 Zrotation Yrotation Xrotation
				JOINT LeftFoot
				{
					OFFSET 2.60555 -7.15868 0.00000
					CHANNELS 3 Zrotation Yrotation Xrotation
					JOINT LeftToeBase
					{
						OFFSET 0.19248 -0.52884 2.26738
						CHANNELS 3 Zrotation Yrotation Xrotation
						End Site
						{
							OFFSET 0.00000 -0.00000 1.17015
						}
					}
				}
			}
		}
	}
	JOINT RHipJoint
	{
		OFFSET 0 0 0
		CHANNELS 3 Zrotation Yrotation Xrotation
		JOINT RightUpLeg
		{
			OFFSET -1.46918 -1.72757 0.83774
			CHANNELS 3 Zrotation Yrotation Xrotation
			JOINT RightLeg
			{
				OFFSET -2.49034 -6.84216 0.00000
				CHANNELS 3 Zrotation Yrotation Xrotation
				JOINT RightFoot
				{
					OFFSET -2.65971 -7.30750 0.00000
					CHANNELS 3 Zrotation Yrotation Xrotation
					JOINT RightToeBase
					{
						OFFSET -0.19227 -0.52827 2.30785
						CHANNELS 3 Zrotation Yrotation Xrotation
						End Site
						{
							OFFSET -0.00000 -0.00000 1.18972
						}
					}
				}
			}
		}
	}
	JOINT LowerBack
	{
		OFFSET 0 0 0
		CHANNELS 3 Zrotation Yrotation Xrotation
		JOINT Spine
		{
			OFFSET 0.02432 2.19909 -0.28000
			CHANNELS 3 Zrotation Yrotation Xrotation
			JOINT Spine1
			{
				OFFSET 0.03714 2.21816 -0.15261
				CHANNELS 3 Zrotation Yrotation Xrotation
				JOINT Neck
				{
					OFFSET 0 0 0
					CHANNELS 3 Zrotation Yrotation Xrotation
					JOINT Neck1
					{
						OFFSET -0.01896 1.56165 0.21681
						CHANNELS 3 Zrotation Yrotation Xrotation
						JOINT Head
						{
							OFFSET 0.02744 1.56009 0.06764
							CHANNELS 3 Zrotation Yrotation Xrotation
							End Site
							{
								OFFSET 0.01212 1.60574 0.00298
							}
						}
					}
				}
				JOINT LeftShoulder
				{
					OFFSET 0 0 0
					CHANNELS 3 Zrotation Yrotation Xrotation
					JOINT LeftArm
					{
						OFFSET 3.05595 1.48048 -0.60794
						CHANNELS 3 Zrotation Yrotation Xrotation
						JOINT LeftForeArm
						{
							OFFSET 5.20607 -0.00000 -0.00000
							CHANNELS 3 Zrotation Yrotation Xrotation
							JOINT LeftHand
							{
								OFFSET 3.39961 -0.00000 0.00000
								CHANNELS 3 Zrotation Yrotation Xrotation
								JOINT LeftFingerBase
								{
									OFFSET 0 0 0
									CHANNELS 3 Zrotation Yrotation Xrotation
									JOINT LeftHandIndex1
									{
										OFFSET 0.51969 -0.00000 0.00000
										CHANNELS 3 Zrotation Yrotation Xrotation
										End Site
										{
											OFFSET 0.41899 -0.00000 0.00000
										}
									}
								}
								JOINT LThumb
								{
									OFFSET 0 0 0
									CHANNELS 3 Zrotation Yrotation Xrotation
									End Site
									{
										OFFSET 0.42539 -0.00000 0.42539
									}
								}
							}
						}
					}
				}
				JOINT RightShoulder
				{
					OFFSET 0 0 0
					CHANNELS 3 Zrotation Yrotation Xrotation
					JOINT RightArm
					{
						OFFSET -2.99052 1.57608 -0.69102
						CHANNELS 3 Zrotation Yrotation Xrotation
						JOINT RightForeArm
						{
							OFFSET -5.32214 -0.00000 0.00000
							CHANNELS 3 Zrotation Yrotation Xrotation
							JOINT RightHand
							{
								OFFSET -3.51208 -0.00000 0.00000
								CHANNELS 3 Zrotation Yrotation Xrotation
								JOINT RightFingerBase
								{
									OFFSET 0 0 0
									CHANNELS 3 Zrotation Yrotation Xrotation
									JOINT RightHandIndex1
									{
										OFFSET -0.58668 -0.00000 0.00000
										CHANNELS 3 Zrotation Yrotation Xrotation
										End Site
										{
											OFFSET -0.47300 -0.00000 0.00000
										}
									}
								}
								JOINT RThumb
								{
									OFFSET 0 0 0
									CHANNELS 3 Zrotation Yrotation Xrotation
									End Site
									{
										OFFSET -0.48022 -0.00000 0.48022
									}
								}
							}
						}
					}
				}
			}
		}
	}
}
MOTION
Frames: 15
Frame Time: .0083333
0.1671 17.1497 -15.3197 0 0 0 0 0 0 -21 0 0 0 0 0 0 0 0 0 0 0 0 0 0 21 0 0 0 0 0 0 0 0 0 0 0 0 0 0 0 0 0 0 0 0 0 0 -16 0 0 21 0 0 11 0 0 0 -8 0 0 0 0 0 0 0 0 0 0 0 0 0 0 0 0 0 0 0 0 8 0 0 0 0 0 0 0 0 0 0 0 0 0 0 0 0 0
0.1671 17.1497 -15.3197 -2.4779 -1.4260 15.1856 0.0000 0.0000 0.0000 -15.2942 -3.0742 -37.5403 3.8666 11.9807 35.6639 0.6252 -1.9809 -14.3902 0.0753 1.7706 4.8721 0.0000 0.0000 0.0000 17.3541 8.0413 -36.3274 -3.8472 -11.9542 35.5703 -0.5326 6.7608 -13.1266 -0.3047 -3.5488 9.8105 0.7403 -0.2459 10.5862 1.4310 -0.2916 8.1952 1.0920 -0.1573 2.6154 -0.7215 0.8272 -9.3338 -0.7385 1.4224 22.0699 0.0143 0.5310 8.3851 0.0000 -0.0000 0.0000 -86.6556 -1.9067 35.1250 15.4879 -24.8214 -3.4282 -0.0000 0.0000 -18.8183 28.5357 -4.1466 -2.2517 -7.1250 0.0000 -0.0000 1.4265 25.2621 -0.6815 0.0000 -0.0000 0.0000 86.7461 1.3758 19.3955 -18.8192 29.1934 -4.9424 0.0000 0.0000 18.6489 -23.2196 -25.7610 10.5617 7.1250 -0.0000 -0.0000 7.3450 -57.5335 -2.2623
0.1605 17.1554 -15.3181 -2.4302 -1.4213 15.2154 0.0000 0.0000 0.0000 -15.3409 -3.0565 -37.5016 3.8392 11.9433 35.5316 0.6192 -1.9665 -14.3223 0.0755 1.7724 4.8771 0.0000 0.0000 0.0000 17.3356 8.0020 -36.3232 -3.8304 -11.9312 35.4889 -0.5274 6.8007 -13.0717 -0.3175 -3.6221 10.0159 0.6892 -0.2544 10.6082 1.4045 -0.3067 8.2339 1.0944 -0.1664 2.6447 -0.6882 0.8262 -9.3226 -0.7757 1.4225 22.0254 -0.0039 0.5304 8.3685 -0.0000 0.0000 0.0000 -86.7101 -1.8953 35.2605 15.5729 -24.9381 -3.4639 -0.0000 0.0000 -18.8008 27.7882 -2.9829 -1.5708 -7.1250 0.0000 -0.0000 0.9030 26.6086 -0.4030 -0.0000 0.0000 0.0000 86.7346 1.4046 19.4890 -18.7947 29.1628 -4.9304 0.0000 0.0000 18.7260 -23.2001 -25.7333 10.5417 7.1250 -0.0000 -0.0000 7.3538 -57.5006 -2.2592
0.1536 17.1599 -15.3172 -2.4475 -1.4128 15.2984 0.0000 0.0000 0.0000 -15.3084 -3.0534 -37.5437 3.8167 11.9124 35.4229 0.6138 -1.9376 -14.2633 0.0736 1.7500 4.8152 0.0000 0.0000 0.0000 17.3782 8.0203 -36.3570 -3.8083 -11.9009 35.3823 -0.5221 6.7980 -13.0095 -0.3282 -3.6819 10.1834 0.6888 -0.2544 10.5982 1.3998 -0.3065 8.2241 1.0898 -0.1661 2.6397 -0.6868 0.8153 -9.2500 -0.7628 1.4028 21.9866 -0.0022 0.5231 8.3419 -0.0000 -0.0000 0.0000 -86.7634 -1.8009 35.5712 15.5837 -24.9529 -3.4685 -0.0000 0.0000 -18.9239 27.8595 -3.1963 -1.6881 -7.1250 0.0000 -0.0000 0.9507 26.3652 -0.4297 -0.0000 -0.0000 0.0000 86.7144 1.3225 19.6302 -18.8164 29.1899 -4.9410 0.0000 0.0000 18.6778 -23.2600 -25.6289 10.5324 7.1250 -0.0000 -0.0000 7.2429 -57.4059 -2.2083
0.1470 17.1655 -15.3142 -2.4519 -1.3614 15.3179 0.0000 0.0000 0.0000 -15.2842 -3.0736 -37.4895 3.7921 11.8785 35.3035 0.6079 -1.8855 -14.2033 0.0707 1.7149 4.7185 0.0000 0.0000 0.0000 17.4293 7.9700 -36.3120 -3.7866 -11.8709 35.2769 -0.5193 6.7840 -12.9749 -0.3295 -3.6890 10.2033 0.7014 -0.2658 10.5812 1.3977 -0.3212 8.2528 1.0816 -0.1728 2.6794 -0.7348 0.7920 -9.1902 -0.7122 1.3668 21.9244 0.0189 0.5080 8.3091 0.0000 0.0000 0.0000 -86.8101 -1.7741 35.8876 15.5904 -24.9622 -3.4713 -0.0000 0.0000 -18.7555 28.0416 -3.6910 -1.9639 -7.1250 0.0000 -0.0000 1.0720 25.7993 -0.4987 0.0000 0.0000 0.0000 86.7143 1.3411 19.7113 -18.7929 29.1605 -4.9295 0.0000 0.0000 18.6986 -23.1801 -25.6596 10.5043 7.1250 -0.0000 -0.0000 7.3429 -57.4200 -2.2416
0.1405 17.1709 -15.3117 -2.4532 -1.3257 15.3505 0.0000 0.0000 0.0000 -15.2661 -3.0868 -37.4576 3.7689 11.8464 35.1908 0.6027 -1.8374 -14.1509 0.0680 1.6819 4.6274 0.0000 0.0000 0.0000 17.4705 7.9382 -36.2819 -3.7634 -11.8387 35.1638 -0.5154 6.7728 -12.9279 -0.3341 -3.7146 10.2752 0.6984 -0.2758 10.5723 1.3965 -0.3348 8.2683 1.0830 -0.1797 2.7010 -0.7501 0.7802 -9.1427 -0.6986 1.3493 21.8926 0.0240 0.5002 8.2895 0.0000 -0.0000 0.0000 -86.8682 -1.7351 36.1620 15.6344 -25.0225 -3.4899 -0.0000 0.0000 -18.7302 27.9821 -3.7134 -1.9708 -7.1250 0.0000 -0.0000 1.0262 25.7763 -0.4779 0.0000 -0.0000 0.0000 86.7022 1.3298 19.8145 -18.7838 29.1491 -4.9251 0.0000 0.0000 18.7002 -23.1493 -25.6499 10.4854 7.1250 -0.0000 -0.0000 7.3721 -57.4032 -2.2475
0.1341 17.1764 -15.3089 -2.4572 -1.2881 15.3757 0.0000 0.0000 0.0000 -15.2445 -3.1042 -37.4085 3.7436 11.8111 35.0671 0.5973 -1.7798 -14.0970 0.0650 1.6443 4.5237 0.0000 0.0000 0.0000 17.5156 7.9075 -36.2383 -3.7395 -11.8054 35.0470 -0.5120 6.7520 -12.8849 -0.3378 -3.7347 10.3315 0.6962 -0.2856 10.5601 1.3995 -0.3482 8.2818 1.0884 -0.1866 2.7222 -0.7640 0.7699 -9.1051 -0.6900 1.3351 21.8787 0.0276 0.4935 8.2777 0.0000 -0.0000 0.0000 -86.9313 -1.7071 36.4305 15.7046 -25.1185 -3.5196 -0.0000 0.0000 -18.7782 27.8407 -3.5818 -1.8898 -7.1250 0.0000 -0.0000 0.9238 25.9305 -0.4269 0.0000 -0.0000 0.0000 86.6904 1.3196 19.9142 -18.7756 29.1389 -4.9211 0.0000 0.0000 18.6934 -23.1150 -25.6480 10.4678 7.1250 -0.0000 -0.0000 7.4082 -57.3937 -2.2570
0.1280 17.1821 -15.3056 -2.4609 -1.2523 15.3924 0.0000 0.0000 0.0000 -15.2225 -3.1238 -37.3444 3.7180 11.7753 34.9417 0.5920 -1.7172 -14.0467 0.0620 1.6068 4.4202 0.0000 0.0000 0.0000 17.5606 7.8776 -36.1810 -3.7151 -11.7713 34.9278 -0.5089 6.7251 -12.8446 -0.3405 -3.7496 10.3732 0.6929 -0.2945 10.5456 1.4038 -0.3605 8.2944 1.0957 -0.1929 2.7436 -0.7708 0.7619 -9.0843 -0.6904 1.3253 21.8875 0.0276 0.4883 8.2768 -0.0000 -0.0000 0.0000 -86.9976 -1.6920 36.6822 15.8038 -25.2539 -3.5618 -0.0000 0.0000 -18.8946 27.5882 -3.2627 -1.7034 -7.1250 0.0000 -0.0000 0.7425 26.2995 -0.3367 -0.0000 -0.0000 0.0000 86.6818 1.3140 20.0068 -18.7683 29.1298 -4.9176 0.0000 0.0000 18.6878 -23.0807 -25.6507 10.4518 7.1250 -0.0000 -0.0000 7.4465 -57.3889 -2.2679
0.1220 17.1879 -15.3019 -2.4675 -1.2237 15.4036 0.0000 0.0000 0.0000 -15.1981 -3.1405 -37.2687 3.6917 11.7384 34.8128 0.5870 -1.6522 -13.9997 0.0593 1.5712 4.3221 0.0000 0.0000 0.0000 17.6076 7.8550 -36.1108 -3.6897 -11.7357 34.8033 -0.5058 6.6939 -12.8042 -0.3434 -3.7654 10.4176 0.6900 -0.3002 10.5267 1.4088 -0.3687 8.3049 1.1030 -0.1973 2.7651 -0.7687 0.7567 -9.0787 -0.6998 1.3200 21.9184 0.0236 0.4849 8.2863 0.0000 -0.0000 0.0000 -87.0655 -1.6819 36.9395 15.9125 -25.4018 -3.6083 -0.0000 0.0000 -19.0428 27.3652 -2.9541 -1.5279 -7.1250 0.0000 -0.0000 0.5813 26.6542 -0.2588 0.0000 -0.0000 0.0000 86.6783 1.3085 20.0919 -18.7648 29.1254 -4.9158 0.0000 0.0000 18.6815 -23.0520 -25.6428 10.4347 7.1250 -0.0000 -0.0000 7.4741 -57.3745 -2.2737
0.1162 17.1938 -15.2975 -2.4760 -1.2043 15.4079 0.0000 0.0000 0.0000 -15.1727 -3.1518 -37.1803 3.6648 11.7004 34.6804 0.5820 -1.5866 -13.9540 0.0568 1.5376 4.2295 0.0000 0.0000 0.0000 17.6559 7.8384 -36.0265 -3.6635 -11.6986 34.6738 -0.5027 6.6616 -12.7628 -0.3465 -3.7821 10.4646 0.6886 -0.3018 10.5030 1.4118 -0.3714 8.3152 1.1070 -0.1988 2.7891 -0.7608 0.7521 -9.0892 -0.7113 1.3155 21.9665 0.0182 0.4819 8.3046 0.0000 0.0000 0.0000 -87.1313 -1.6752 37.2063 16.0213 -25.5495 -3.6551 -0.0000 0.0000 -19.1853 27.2433 -2.7966 -1.4391 -7.1250 0.0000 -0.0000 0.4922 26.8347 -0.2170 0.0000 0.0000 0.0000 86.6838 1.3074 20.1650 -18.7624 29.1224 -4.9147 0.0000 0.0000 18.6804 -23.0225 -25.6336 10.4167 7.1250 -0.0000 -0.0000 7.5020 -57.3585 -2.2794
0.1105 17.2000 -15.2924 -2.4853 -1.1941 15.4018 0.0000 0.0000 0.0000 -15.1491 -3.1533 -37.0743 3.6373 11.6614 34.5444 0.5775 -1.5250 -13.9122 0.0551 1.5141 4.1647 0.0000 0.0000 0.0000 17.7052 7.8241 -35.9232 -3.6363 -11.6600 34.5396 -0.4995 6.6305 -12.7211 -0.3499 -3.8007 10.5168 0.6855 -0.3004 10.4756 1.4138 -0.3705 8.3273 1.1106 -0.1985 2.8168 -0.7532 0.7483 -9.1089 -0.7213 1.3120 22.0237 0.0134 0.4794 8.3277 0.0000 -0.0000 0.0000 -87.1961 -1.6708 37.4789 16.1221 -25.6859 -3.6987 -0.0000 0.0000 -19.2851 27.2623 -2.8252 -1.4550 -7.1250 0.0000 -0.0000 0.5060 26.8021 -0.2235 0.0000 -0.0000 0.0000 86.6951 1.3121 20.2321 -18.7591 29.1182 -4.9131 0.0000 0.0000 18.6788 -23.0014 -25.6083 10.3968 7.1250 -0.0000 -0.0000 7.5137 -57.3277 -2.2773
0.1049 17.2064 -15.2865 -2.4949 -1.1896 15.3863 0.0000 0.0000 0.0000 -15.1268 -3.1480 -36.9534 3.6092 11.6213 34.4052 0.5731 -1.4645 -13.8721 0.0536 1.4940 4.1093 0.0000 0.0000 0.0000 17.7552 7.8127 -35.8042 -3.6086 -11.6206 34.4026 -0.4965 6.5980 -12.6806 -0.3538 -3.8216 10.5753 0.6828 -0.2958 10.4440 1.4136 -0.3652 8.3398 1.1113 -0.1960 2.8471 -0.7489 0.7432 -9.1271 -0.7213 1.3052 22.0817 0.0122 0.4761 8.3506 -0.0000 -0.0000 0.0000 -87.2557 -1.6663 37.7521 16.2186 -25.8161 -3.7406 -0.0000 0.0000 -19.3305 27.4299 -3.0434 -1.5784 -7.1250 0.0000 -0.0000 0.6283 26.5517 -0.2812 -0.0000 -0.0000 0.0000 86.7163 1.3153 20.2931 -18.7593 29.1185 -4.9132 0.0000 0.0000 18.6689 -22.9891 -25.5789 10.3799 7.1250 -0.0000 -0.0000 7.5140 -57.2946 -2.2714
0.0993 17.2128 -15.2800 -2.5003 -1.1883 15.3624 0.0000 0.0000 0.0000 -15.1103 -3.1405 -36.8178 3.5805 11.5802 34.2625 0.5689 -1.4051 -13.8343 0.0527 1.4817 4.0753 0.0000 0.0000 0.0000 17.8007 7.8002 -35.6729 -3.5810 -11.5809 34.2649 -0.4937 6.5651 -12.6425 -0.3576 -3.8417 10.6316 0.6757 -0.2891 10.4097 1.4116 -0.3577 8.3520 1.1125 -0.1925 2.8787 -0.7441 0.7361 -9.1498 -0.7188 1.2951 22.1434 0.0115 0.4714 8.3757 0.0000 -0.0000 0.0000 -87.3128 -1.6663 38.0116 16.3170 -25.9486 -3.7836 -0.0000 0.0000 -19.3457 27.6548 -3.2835 -1.7191 -7.1250 0.0000 -0.0000 0.7924 26.2737 -0.3598 0.0000 -0.0000 0.0000 86.7443 1.3168 20.3521 -18.7626 29.1227 -4.9148 0.0000 0.0000 18.6457 -22.9910 -25.5438 10.3678 7.1250 -0.0000 -0.0000 7.4965 -57.2588 -2.2596
0.0939 17.2192 -15.2732 -2.5015 -1.1843 15.3368 0.0000 0.0000 0.0000 -15.0967 -3.1406 -36.6755 3.5514 11.5382 34.1172 0.5646 -1.3430 -13.7954 0.0522 1.4742 4.0545 0.0000 0.0000 0.0000 17.8414 7.7869 -35.5397 -3.5537 -11.5415 34.1287 -0.4912 6.5277 -12.6074 -0.3609 -3.8591 10.6806 0.6664 -0.2824 10.3678 1.4095 -0.3503 8.3614 1.1147 -0.1892 2.9113 -0.7505 0.7272 -9.1665 -0.7021 1.2813 22.2019 0.0169 0.4656 8.3984 -0.0000 -0.0000 0.0000 -87.3707 -1.6696 38.2375 16.4256 -26.0944 -3.8313 -0.0000 0.0000 -19.3411 27.9006 -3.5157 -1.8597 -7.1250 0.0000 -0.0000 0.9714 26.0029 -0.4473 -0.0000 -0.0000 0.0000 86.7756 1.3111 20.4167 -18.7748 29.1379 -4.9207 0.0000 0.0000 18.6063 -23.0029 -25.5159 10.3633 7.1250 -0.0000 -0.0000 7.4714 -57.2327 -2.2473
0.0885 17.2254 -15.2663 -2.4969 -1.1780 15.3124 0.0000 0.0000 0.0000 -15.0877 -3.1498 -36.5303 3.5218 11.4953 33.9692 0.5601 -1.2771 -13.7548 0.0518 1.4683 4.0383 0.0000 0.0000 0.0000 17.8744 7.7732 -35.4089 -3.5270 -11.5028 33.9950 -0.4889 6.4884 -12.5745 -0.3648 -3.8799 10.7390 0.6557 -0.2739 10.3158 1.4054 -0.3408 8.3685 1.1155 -0.1848 2.9470 -0.7632 0.7161 -9.1835 -0.6710 1.2624 22.2594 0.0278 0.4583 8.4207 -0.0000 -0.0000 0.0000 -87.4256 -1.6836 38.4256 16.5537 -26.2657 -3.8878 -0.0000 0.0000 -19.3669 28.0864 -3.5981 -1.9181 -7.1250 0.0000 -0.0000 1.1092 25.9028 -0.5133 -0.0000 -0.0000 0.0000 86.8135 1.3017 20.4804 -18.7950 29.1632 -4.9306 0.0000 0.0000 18.5555 -23.0206 -25.5006 10.3664 7.1250 -0.0000 -0.0000 7.4456 -57.2207 -2.2373
